<svg width="521" height="170" viewBox="0 0 521 170" fill="none" xmlns="http://www.w3.org/2000/svg">
<rect width="521" height="170" rx="20" fill="#F5EEE7"/>
<path d="M174.74 125.135C174.27 125.135 173.815 125.095 173.375 125.015C172.935 124.945 172.52 124.835 172.13 124.685C171.74 124.535 171.39 124.35 171.08 124.13C170.95 124.04 170.855 123.93 170.795 123.8C170.745 123.67 170.73 123.545 170.75 123.425C170.78 123.295 170.835 123.185 170.915 123.095C171.005 123.005 171.11 122.95 171.23 122.93C171.35 122.91 171.48 122.95 171.62 123.05C172.08 123.36 172.56 123.585 173.06 123.725C173.57 123.865 174.13 123.935 174.74 123.935C175.62 123.935 176.265 123.775 176.675 123.455C177.095 123.135 177.305 122.715 177.305 122.195C177.305 121.765 177.155 121.43 176.855 121.19C176.555 120.94 176.05 120.745 175.34 120.605L173.75 120.275C172.81 120.075 172.105 119.745 171.635 119.285C171.175 118.825 170.945 118.21 170.945 117.44C170.945 116.97 171.04 116.545 171.23 116.165C171.42 115.775 171.69 115.44 172.04 115.16C172.39 114.88 172.8 114.665 173.27 114.515C173.75 114.365 174.28 114.29 174.86 114.29C175.48 114.29 176.06 114.375 176.6 114.545C177.15 114.715 177.645 114.965 178.085 115.295C178.205 115.385 178.285 115.495 178.325 115.625C178.365 115.745 178.37 115.865 178.34 115.985C178.32 116.105 178.265 116.205 178.175 116.285C178.095 116.365 177.99 116.41 177.86 116.42C177.74 116.43 177.605 116.385 177.455 116.285C177.055 116.005 176.645 115.805 176.225 115.685C175.805 115.555 175.345 115.49 174.845 115.49C174.335 115.49 173.89 115.57 173.51 115.73C173.14 115.89 172.85 116.115 172.64 116.405C172.44 116.685 172.34 117.015 172.34 117.395C172.34 117.855 172.48 118.215 172.76 118.475C173.04 118.735 173.51 118.935 174.17 119.075L175.745 119.39C176.745 119.6 177.485 119.925 177.965 120.365C178.455 120.795 178.7 121.375 178.7 122.105C178.7 122.565 178.605 122.98 178.415 123.35C178.235 123.72 177.975 124.04 177.635 124.31C177.295 124.57 176.88 124.775 176.39 124.925C175.9 125.065 175.35 125.135 174.74 125.135ZM183.742 125.135C182.952 125.135 182.272 124.985 181.702 124.685C181.142 124.375 180.707 123.94 180.397 123.38C180.087 122.81 179.932 122.14 179.932 121.37C179.932 120.61 180.082 119.945 180.382 119.375C180.692 118.805 181.112 118.36 181.642 118.04C182.182 117.72 182.797 117.56 183.487 117.56C183.977 117.56 184.417 117.645 184.807 117.815C185.207 117.975 185.547 118.21 185.827 118.52C186.107 118.83 186.317 119.21 186.457 119.66C186.607 120.1 186.682 120.6 186.682 121.16C186.682 121.32 186.632 121.445 186.532 121.535C186.442 121.615 186.307 121.655 186.127 121.655H180.997V120.785H185.782L185.527 120.995C185.527 120.475 185.447 120.035 185.287 119.675C185.137 119.305 184.912 119.025 184.612 118.835C184.322 118.645 183.957 118.55 183.517 118.55C183.037 118.55 182.627 118.665 182.287 118.895C181.947 119.115 181.687 119.43 181.507 119.84C181.327 120.24 181.237 120.705 181.237 121.235V121.325C181.237 122.225 181.452 122.905 181.882 123.365C182.312 123.825 182.932 124.055 183.742 124.055C184.062 124.055 184.387 124.015 184.717 123.935C185.057 123.855 185.382 123.71 185.692 123.5C185.842 123.41 185.977 123.37 186.097 123.38C186.227 123.38 186.332 123.42 186.412 123.5C186.492 123.57 186.542 123.66 186.562 123.77C186.582 123.87 186.567 123.98 186.517 124.1C186.467 124.22 186.372 124.325 186.232 124.415C185.902 124.645 185.507 124.825 185.047 124.955C184.597 125.075 184.162 125.135 183.742 125.135ZM190.675 125.135C189.925 125.135 189.355 124.915 188.965 124.475C188.575 124.025 188.38 123.38 188.38 122.54V115.01C188.38 114.78 188.44 114.61 188.56 114.5C188.68 114.38 188.845 114.32 189.055 114.32C189.275 114.32 189.445 114.38 189.565 114.5C189.685 114.61 189.745 114.78 189.745 115.01V122.435C189.745 122.955 189.85 123.345 190.06 123.605C190.28 123.855 190.59 123.98 190.99 123.98C191.08 123.98 191.16 123.98 191.23 123.98C191.3 123.97 191.37 123.96 191.44 123.95C191.55 123.94 191.63 123.97 191.68 124.04C191.73 124.11 191.755 124.25 191.755 124.46C191.755 124.65 191.71 124.8 191.62 124.91C191.54 125.01 191.405 125.075 191.215 125.105C191.125 125.115 191.035 125.12 190.945 125.12C190.855 125.13 190.765 125.135 190.675 125.135ZM193.885 125.105C193.665 125.105 193.495 125.045 193.375 124.925C193.255 124.805 193.195 124.63 193.195 124.4V118.745H192.295C192.115 118.745 191.975 118.7 191.875 118.61C191.775 118.51 191.725 118.38 191.725 118.22C191.725 118.05 191.775 117.92 191.875 117.83C191.975 117.74 192.115 117.695 192.295 117.695H193.57L193.195 118.055V117.5C193.195 116.53 193.43 115.795 193.9 115.295C194.38 114.785 195.08 114.49 196 114.41L196.465 114.38C196.615 114.36 196.735 114.385 196.825 114.455C196.915 114.515 196.975 114.595 197.005 114.695C197.035 114.795 197.035 114.9 197.005 115.01C196.985 115.11 196.94 115.2 196.87 115.28C196.8 115.36 196.71 115.405 196.6 115.415L196.27 115.43C195.67 115.48 195.235 115.66 194.965 115.97C194.695 116.27 194.56 116.72 194.56 117.32V117.92L194.365 117.695H196.09C196.28 117.695 196.425 117.74 196.525 117.83C196.625 117.92 196.675 118.05 196.675 118.22C196.675 118.38 196.625 118.51 196.525 118.61C196.425 118.7 196.28 118.745 196.09 118.745H194.56V124.4C194.56 124.87 194.335 125.105 193.885 125.105ZM198.176 121.565C198.016 121.565 197.881 121.51 197.771 121.4C197.661 121.29 197.606 121.155 197.606 120.995C197.606 120.835 197.661 120.705 197.771 120.605C197.881 120.495 198.016 120.44 198.176 120.44H201.521C201.671 120.44 201.801 120.495 201.911 120.605C202.031 120.705 202.091 120.835 202.091 120.995C202.091 121.155 202.031 121.29 201.911 121.4C201.801 121.51 201.671 121.565 201.521 121.565H198.176ZM204.817 125.105C204.607 125.105 204.442 125.045 204.322 124.925C204.202 124.805 204.142 124.63 204.142 124.4V115.01C204.142 114.78 204.202 114.61 204.322 114.5C204.442 114.38 204.607 114.32 204.817 114.32C205.037 114.32 205.207 114.38 205.327 114.5C205.447 114.61 205.507 114.78 205.507 115.01V119.285H205.312C205.522 118.715 205.862 118.285 206.332 117.995C206.812 117.705 207.357 117.56 207.967 117.56C208.557 117.56 209.042 117.67 209.422 117.89C209.802 118.1 210.087 118.42 210.277 118.85C210.467 119.28 210.562 119.82 210.562 120.47V124.4C210.562 124.63 210.502 124.805 210.382 124.925C210.272 125.045 210.107 125.105 209.887 125.105C209.667 125.105 209.497 125.045 209.377 124.925C209.257 124.805 209.197 124.63 209.197 124.4V120.545C209.197 119.895 209.072 119.42 208.822 119.12C208.572 118.82 208.172 118.67 207.622 118.67C206.982 118.67 206.467 118.87 206.077 119.27C205.697 119.66 205.507 120.19 205.507 120.86V124.4C205.507 124.87 205.277 125.105 204.817 125.105ZM215.831 125.135C215.111 125.135 214.486 124.98 213.956 124.67C213.426 124.36 213.016 123.92 212.726 123.35C212.436 122.78 212.291 122.11 212.291 121.34C212.291 120.76 212.371 120.24 212.531 119.78C212.701 119.31 212.941 118.91 213.251 118.58C213.561 118.25 213.931 118 214.361 117.83C214.801 117.65 215.291 117.56 215.831 117.56C216.551 117.56 217.176 117.715 217.706 118.025C218.236 118.335 218.646 118.775 218.936 119.345C219.226 119.905 219.371 120.57 219.371 121.34C219.371 121.92 219.286 122.445 219.116 122.915C218.956 123.385 218.721 123.785 218.411 124.115C218.101 124.445 217.726 124.7 217.286 124.88C216.856 125.05 216.371 125.135 215.831 125.135ZM215.831 124.055C216.271 124.055 216.651 123.95 216.971 123.74C217.301 123.53 217.551 123.225 217.721 122.825C217.901 122.425 217.991 121.93 217.991 121.34C217.991 120.46 217.796 119.79 217.406 119.33C217.016 118.87 216.491 118.64 215.831 118.64C215.401 118.64 215.021 118.745 214.691 118.955C214.371 119.155 214.121 119.455 213.941 119.855C213.761 120.255 213.671 120.75 213.671 121.34C213.671 122.22 213.866 122.895 214.256 123.365C214.656 123.825 215.181 124.055 215.831 124.055ZM223.639 125.135C223.189 125.135 222.734 125.085 222.274 124.985C221.824 124.875 221.399 124.69 220.999 124.43C220.889 124.36 220.809 124.275 220.759 124.175C220.719 124.065 220.704 123.96 220.714 123.86C220.734 123.75 220.779 123.655 220.849 123.575C220.919 123.495 221.004 123.45 221.104 123.44C221.214 123.42 221.329 123.445 221.449 123.515C221.839 123.735 222.214 123.89 222.574 123.98C222.944 124.07 223.309 124.115 223.669 124.115C224.219 124.115 224.634 124.015 224.914 123.815C225.194 123.615 225.334 123.35 225.334 123.02C225.334 122.74 225.239 122.525 225.049 122.375C224.869 122.215 224.584 122.095 224.194 122.015L222.799 121.73C222.179 121.59 221.709 121.36 221.389 121.04C221.079 120.71 220.924 120.29 220.924 119.78C220.924 119.33 221.044 118.94 221.284 118.61C221.534 118.27 221.879 118.01 222.319 117.83C222.759 117.65 223.264 117.56 223.834 117.56C224.274 117.56 224.689 117.62 225.079 117.74C225.479 117.85 225.839 118.02 226.159 118.25C226.279 118.32 226.354 118.41 226.384 118.52C226.424 118.62 226.429 118.725 226.399 118.835C226.379 118.935 226.334 119.02 226.264 119.09C226.194 119.16 226.104 119.205 225.994 119.225C225.884 119.235 225.764 119.205 225.634 119.135C225.344 118.935 225.044 118.795 224.734 118.715C224.434 118.625 224.134 118.58 223.834 118.58C223.294 118.58 222.884 118.685 222.604 118.895C222.334 119.105 222.199 119.38 222.199 119.72C222.199 119.98 222.279 120.195 222.439 120.365C222.609 120.535 222.874 120.66 223.234 120.74L224.629 121.025C225.279 121.165 225.769 121.39 226.099 121.7C226.429 122 226.594 122.41 226.594 122.93C226.594 123.61 226.324 124.15 225.784 124.55C225.254 124.94 224.539 125.135 223.639 125.135ZM231.327 125.135C230.737 125.135 230.242 125.03 229.842 124.82C229.452 124.61 229.157 124.305 228.957 123.905C228.767 123.505 228.672 123.015 228.672 122.435V118.745H227.712C227.532 118.745 227.392 118.7 227.292 118.61C227.192 118.51 227.142 118.38 227.142 118.22C227.142 118.05 227.192 117.92 227.292 117.83C227.392 117.74 227.532 117.695 227.712 117.695H228.672V116.06C228.672 115.83 228.732 115.66 228.852 115.55C228.972 115.43 229.142 115.37 229.362 115.37C229.582 115.37 229.747 115.43 229.857 115.55C229.977 115.66 230.037 115.83 230.037 116.06V117.695H231.852C232.042 117.695 232.187 117.74 232.287 117.83C232.387 117.92 232.437 118.05 232.437 118.22C232.437 118.38 232.387 118.51 232.287 118.61C232.187 118.7 232.042 118.745 231.852 118.745H230.037V122.315C230.037 122.865 230.152 123.28 230.382 123.56C230.612 123.84 230.992 123.98 231.522 123.98C231.712 123.98 231.872 123.965 232.002 123.935C232.132 123.895 232.247 123.875 232.347 123.875C232.437 123.865 232.512 123.895 232.572 123.965C232.642 124.035 232.677 124.165 232.677 124.355C232.677 124.495 232.652 124.625 232.602 124.745C232.562 124.855 232.477 124.93 232.347 124.97C232.227 125.01 232.067 125.045 231.867 125.075C231.667 125.115 231.487 125.135 231.327 125.135ZM236.975 125.135C236.185 125.135 235.505 124.985 234.935 124.685C234.375 124.375 233.94 123.94 233.63 123.38C233.32 122.81 233.165 122.14 233.165 121.37C233.165 120.61 233.315 119.945 233.615 119.375C233.925 118.805 234.345 118.36 234.875 118.04C235.415 117.72 236.03 117.56 236.72 117.56C237.21 117.56 237.65 117.645 238.04 117.815C238.44 117.975 238.78 118.21 239.06 118.52C239.34 118.83 239.55 119.21 239.69 119.66C239.84 120.1 239.915 120.6 239.915 121.16C239.915 121.32 239.865 121.445 239.765 121.535C239.675 121.615 239.54 121.655 239.36 121.655H234.23V120.785H239.015L238.76 120.995C238.76 120.475 238.68 120.035 238.52 119.675C238.37 119.305 238.145 119.025 237.845 118.835C237.555 118.645 237.19 118.55 236.75 118.55C236.27 118.55 235.86 118.665 235.52 118.895C235.18 119.115 234.92 119.43 234.74 119.84C234.56 120.24 234.47 120.705 234.47 121.235V121.325C234.47 122.225 234.685 122.905 235.115 123.365C235.545 123.825 236.165 124.055 236.975 124.055C237.295 124.055 237.62 124.015 237.95 123.935C238.29 123.855 238.615 123.71 238.925 123.5C239.075 123.41 239.21 123.37 239.33 123.38C239.46 123.38 239.565 123.42 239.645 123.5C239.725 123.57 239.775 123.66 239.795 123.77C239.815 123.87 239.8 123.98 239.75 124.1C239.7 124.22 239.605 124.325 239.465 124.415C239.135 124.645 238.74 124.825 238.28 124.955C237.83 125.075 237.395 125.135 236.975 125.135ZM244.403 125.135C243.763 125.135 243.198 124.985 242.708 124.685C242.228 124.375 241.853 123.935 241.583 123.365C241.313 122.785 241.178 122.11 241.178 121.34C241.178 120.56 241.308 119.89 241.568 119.33C241.838 118.76 242.213 118.325 242.693 118.025C243.183 117.715 243.753 117.56 244.403 117.56C245.053 117.56 245.613 117.725 246.083 118.055C246.553 118.375 246.868 118.805 247.028 119.345H246.863V115.01C246.863 114.78 246.918 114.61 247.028 114.5C247.148 114.38 247.318 114.32 247.538 114.32C247.758 114.32 247.928 114.38 248.048 114.5C248.168 114.61 248.228 114.78 248.228 115.01V124.4C248.228 124.63 248.168 124.805 248.048 124.925C247.928 125.045 247.758 125.105 247.538 125.105C247.328 125.105 247.163 125.045 247.043 124.925C246.923 124.805 246.863 124.63 246.863 124.4V123.035L247.028 123.305C246.878 123.865 246.563 124.31 246.083 124.64C245.613 124.97 245.053 125.135 244.403 125.135ZM244.718 124.055C245.158 124.055 245.538 123.95 245.858 123.74C246.188 123.53 246.438 123.225 246.608 122.825C246.788 122.425 246.878 121.93 246.878 121.34C246.878 120.46 246.683 119.79 246.293 119.33C245.903 118.87 245.378 118.64 244.718 118.64C244.288 118.64 243.908 118.745 243.578 118.955C243.258 119.155 243.008 119.455 242.828 119.855C242.648 120.255 242.558 120.75 242.558 121.34C242.558 122.22 242.753 122.895 243.143 123.365C243.543 123.825 244.068 124.055 244.718 124.055ZM256.847 125.135C256.397 125.135 255.942 125.085 255.482 124.985C255.032 124.875 254.607 124.69 254.207 124.43C254.097 124.36 254.017 124.275 253.967 124.175C253.927 124.065 253.912 123.96 253.922 123.86C253.942 123.75 253.987 123.655 254.057 123.575C254.127 123.495 254.212 123.45 254.312 123.44C254.422 123.42 254.537 123.445 254.657 123.515C255.047 123.735 255.422 123.89 255.782 123.98C256.152 124.07 256.517 124.115 256.877 124.115C257.427 124.115 257.842 124.015 258.122 123.815C258.402 123.615 258.542 123.35 258.542 123.02C258.542 122.74 258.447 122.525 258.257 122.375C258.077 122.215 257.792 122.095 257.402 122.015L256.007 121.73C255.387 121.59 254.917 121.36 254.597 121.04C254.287 120.71 254.132 120.29 254.132 119.78C254.132 119.33 254.252 118.94 254.492 118.61C254.742 118.27 255.087 118.01 255.527 117.83C255.967 117.65 256.472 117.56 257.042 117.56C257.482 117.56 257.897 117.62 258.287 117.74C258.687 117.85 259.047 118.02 259.367 118.25C259.487 118.32 259.562 118.41 259.592 118.52C259.632 118.62 259.637 118.725 259.607 118.835C259.587 118.935 259.542 119.02 259.472 119.09C259.402 119.16 259.312 119.205 259.202 119.225C259.092 119.235 258.972 119.205 258.842 119.135C258.552 118.935 258.252 118.795 257.942 118.715C257.642 118.625 257.342 118.58 257.042 118.58C256.502 118.58 256.092 118.685 255.812 118.895C255.542 119.105 255.407 119.38 255.407 119.72C255.407 119.98 255.487 120.195 255.647 120.365C255.817 120.535 256.082 120.66 256.442 120.74L257.837 121.025C258.487 121.165 258.977 121.39 259.307 121.7C259.637 122 259.802 122.41 259.802 122.93C259.802 123.61 259.532 124.15 258.992 124.55C258.462 124.94 257.747 125.135 256.847 125.135ZM264.683 125.135C263.963 125.135 263.338 124.98 262.808 124.67C262.278 124.36 261.868 123.92 261.578 123.35C261.288 122.78 261.143 122.11 261.143 121.34C261.143 120.76 261.223 120.24 261.383 119.78C261.553 119.31 261.793 118.91 262.103 118.58C262.413 118.25 262.783 118 263.213 117.83C263.653 117.65 264.143 117.56 264.683 117.56C265.403 117.56 266.028 117.715 266.558 118.025C267.088 118.335 267.498 118.775 267.788 119.345C268.078 119.905 268.223 120.57 268.223 121.34C268.223 121.92 268.138 122.445 267.968 122.915C267.808 123.385 267.573 123.785 267.263 124.115C266.953 124.445 266.578 124.7 266.138 124.88C265.708 125.05 265.223 125.135 264.683 125.135ZM264.683 124.055C265.123 124.055 265.503 123.95 265.823 123.74C266.153 123.53 266.403 123.225 266.573 122.825C266.753 122.425 266.843 121.93 266.843 121.34C266.843 120.46 266.648 119.79 266.258 119.33C265.868 118.87 265.343 118.64 264.683 118.64C264.253 118.64 263.873 118.745 263.543 118.955C263.223 119.155 262.973 119.455 262.793 119.855C262.613 120.255 262.523 120.75 262.523 121.34C262.523 122.22 262.718 122.895 263.108 123.365C263.508 123.825 264.033 124.055 264.683 124.055ZM273.137 125.135C272.397 125.135 271.757 124.98 271.217 124.67C270.677 124.35 270.262 123.905 269.972 123.335C269.682 122.755 269.537 122.075 269.537 121.295C269.537 120.715 269.617 120.195 269.777 119.735C269.947 119.275 270.187 118.885 270.497 118.565C270.807 118.235 271.182 117.985 271.622 117.815C272.072 117.645 272.577 117.56 273.137 117.56C273.487 117.56 273.857 117.615 274.247 117.725C274.637 117.835 274.997 118.015 275.327 118.265C275.437 118.345 275.507 118.44 275.537 118.55C275.567 118.65 275.567 118.755 275.537 118.865C275.517 118.975 275.467 119.07 275.387 119.15C275.317 119.22 275.222 119.26 275.102 119.27C274.992 119.28 274.872 119.245 274.742 119.165C274.502 118.985 274.247 118.855 273.977 118.775C273.717 118.695 273.467 118.655 273.227 118.655C272.857 118.655 272.527 118.715 272.237 118.835C271.957 118.955 271.717 119.13 271.517 119.36C271.327 119.58 271.182 119.855 271.082 120.185C270.982 120.505 270.932 120.88 270.932 121.31C270.932 122.16 271.132 122.83 271.532 123.32C271.932 123.8 272.497 124.04 273.227 124.04C273.467 124.04 273.717 124.005 273.977 123.935C274.237 123.855 274.492 123.725 274.742 123.545C274.872 123.465 274.992 123.435 275.102 123.455C275.212 123.465 275.302 123.51 275.372 123.59C275.452 123.66 275.502 123.75 275.522 123.86C275.542 123.96 275.532 124.065 275.492 124.175C275.462 124.285 275.392 124.375 275.282 124.445C274.962 124.685 274.612 124.86 274.232 124.97C273.852 125.08 273.487 125.135 273.137 125.135ZM277.62 125.075C277.41 125.075 277.245 125.01 277.125 124.88C277.005 124.75 276.945 124.57 276.945 124.34V118.355C276.945 118.115 277.005 117.935 277.125 117.815C277.245 117.685 277.41 117.62 277.62 117.62C277.84 117.62 278.01 117.685 278.13 117.815C278.25 117.935 278.31 118.115 278.31 118.355V124.34C278.31 124.57 278.25 124.75 278.13 124.88C278.02 125.01 277.85 125.075 277.62 125.075ZM277.62 116C277.35 116 277.135 115.93 276.975 115.79C276.825 115.64 276.75 115.445 276.75 115.205C276.75 114.945 276.825 114.75 276.975 114.62C277.135 114.48 277.35 114.41 277.62 114.41C277.91 114.41 278.125 114.48 278.265 114.62C278.415 114.75 278.49 114.945 278.49 115.205C278.49 115.445 278.415 115.64 278.265 115.79C278.125 115.93 277.91 116 277.62 116ZM282.829 125.135C282.329 125.135 281.874 125.035 281.464 124.835C281.064 124.635 280.749 124.365 280.519 124.025C280.299 123.685 280.189 123.305 280.189 122.885C280.189 122.345 280.324 121.92 280.594 121.61C280.864 121.3 281.319 121.08 281.959 120.95C282.599 120.81 283.459 120.74 284.539 120.74H285.244V121.61H284.569C283.799 121.61 283.189 121.645 282.739 121.715C282.299 121.785 281.989 121.91 281.809 122.09C281.629 122.26 281.539 122.5 281.539 122.81C281.539 123.2 281.674 123.52 281.944 123.77C282.224 124.02 282.604 124.145 283.084 124.145C283.464 124.145 283.799 124.055 284.089 123.875C284.379 123.685 284.609 123.435 284.779 123.125C284.949 122.805 285.034 122.44 285.034 122.03V120.305C285.034 119.715 284.914 119.29 284.674 119.03C284.434 118.76 284.029 118.625 283.459 118.625C283.129 118.625 282.789 118.67 282.439 118.76C282.089 118.85 281.724 118.99 281.344 119.18C281.194 119.25 281.064 119.275 280.954 119.255C280.844 119.225 280.754 119.165 280.684 119.075C280.624 118.975 280.589 118.87 280.579 118.76C280.579 118.64 280.604 118.525 280.654 118.415C280.714 118.305 280.814 118.225 280.954 118.175C281.394 117.955 281.829 117.8 282.259 117.71C282.699 117.61 283.109 117.56 283.489 117.56C284.139 117.56 284.674 117.665 285.094 117.875C285.514 118.075 285.829 118.39 286.039 118.82C286.249 119.24 286.354 119.78 286.354 120.44V124.4C286.354 124.63 286.299 124.805 286.189 124.925C286.079 125.045 285.919 125.105 285.709 125.105C285.509 125.105 285.349 125.045 285.229 124.925C285.119 124.805 285.064 124.63 285.064 124.4V123.335H285.199C285.119 123.705 284.969 124.025 284.749 124.295C284.529 124.565 284.254 124.775 283.924 124.925C283.604 125.065 283.239 125.135 282.829 125.135ZM290.797 125.135C290.047 125.135 289.477 124.915 289.087 124.475C288.697 124.025 288.502 123.38 288.502 122.54V115.01C288.502 114.78 288.562 114.61 288.682 114.5C288.802 114.38 288.967 114.32 289.177 114.32C289.397 114.32 289.567 114.38 289.687 114.5C289.807 114.61 289.867 114.78 289.867 115.01V122.435C289.867 122.955 289.972 123.345 290.182 123.605C290.402 123.855 290.712 123.98 291.112 123.98C291.202 123.98 291.282 123.98 291.352 123.98C291.422 123.97 291.492 123.96 291.562 123.95C291.672 123.94 291.752 123.97 291.802 124.04C291.852 124.11 291.877 124.25 291.877 124.46C291.877 124.65 291.832 124.8 291.742 124.91C291.662 125.01 291.527 125.075 291.337 125.105C291.247 125.115 291.157 125.12 291.067 125.12C290.977 125.13 290.887 125.135 290.797 125.135ZM297.63 125.105C297.42 125.105 297.255 125.045 297.135 124.925C297.015 124.805 296.955 124.63 296.955 124.4V118.28C296.955 118.05 297.015 117.88 297.135 117.77C297.255 117.65 297.42 117.59 297.63 117.59C297.84 117.59 298 117.65 298.11 117.77C298.23 117.88 298.29 118.05 298.29 118.28V119.555L298.125 119.285C298.315 118.735 298.62 118.31 299.04 118.01C299.47 117.71 299.98 117.56 300.57 117.56C301.19 117.56 301.69 117.71 302.07 118.01C302.45 118.3 302.705 118.745 302.835 119.345H302.625C302.805 118.795 303.125 118.36 303.585 118.04C304.055 117.72 304.6 117.56 305.22 117.56C305.77 117.56 306.22 117.67 306.57 117.89C306.93 118.1 307.2 118.42 307.38 118.85C307.56 119.27 307.65 119.81 307.65 120.47V124.4C307.65 124.63 307.59 124.805 307.47 124.925C307.35 125.045 307.185 125.105 306.975 125.105C306.755 125.105 306.585 125.045 306.465 124.925C306.345 124.805 306.285 124.63 306.285 124.4V120.53C306.285 119.89 306.175 119.42 305.955 119.12C305.735 118.82 305.365 118.67 304.845 118.67C304.275 118.67 303.82 118.87 303.48 119.27C303.15 119.66 302.985 120.2 302.985 120.89V124.4C302.985 124.63 302.925 124.805 302.805 124.925C302.695 125.045 302.53 125.105 302.31 125.105C302.09 125.105 301.92 125.045 301.8 124.925C301.68 124.805 301.62 124.63 301.62 124.4V120.53C301.62 119.89 301.51 119.42 301.29 119.12C301.07 118.82 300.7 118.67 300.18 118.67C299.61 118.67 299.155 118.87 298.815 119.27C298.485 119.66 298.32 120.2 298.32 120.89V124.4C298.32 124.87 298.09 125.105 297.63 125.105ZM313.22 125.135C312.43 125.135 311.75 124.985 311.18 124.685C310.62 124.375 310.185 123.94 309.875 123.38C309.565 122.81 309.41 122.14 309.41 121.37C309.41 120.61 309.56 119.945 309.86 119.375C310.17 118.805 310.59 118.36 311.12 118.04C311.66 117.72 312.275 117.56 312.965 117.56C313.455 117.56 313.895 117.645 314.285 117.815C314.685 117.975 315.025 118.21 315.305 118.52C315.585 118.83 315.795 119.21 315.935 119.66C316.085 120.1 316.16 120.6 316.16 121.16C316.16 121.32 316.11 121.445 316.01 121.535C315.92 121.615 315.785 121.655 315.605 121.655H310.475V120.785H315.26L315.005 120.995C315.005 120.475 314.925 120.035 314.765 119.675C314.615 119.305 314.39 119.025 314.09 118.835C313.8 118.645 313.435 118.55 312.995 118.55C312.515 118.55 312.105 118.665 311.765 118.895C311.425 119.115 311.165 119.43 310.985 119.84C310.805 120.24 310.715 120.705 310.715 121.235V121.325C310.715 122.225 310.93 122.905 311.36 123.365C311.79 123.825 312.41 124.055 313.22 124.055C313.54 124.055 313.865 124.015 314.195 123.935C314.535 123.855 314.86 123.71 315.17 123.5C315.32 123.41 315.455 123.37 315.575 123.38C315.705 123.38 315.81 123.42 315.89 123.5C315.97 123.57 316.02 123.66 316.04 123.77C316.06 123.87 316.045 123.98 315.995 124.1C315.945 124.22 315.85 124.325 315.71 124.415C315.38 124.645 314.985 124.825 314.525 124.955C314.075 125.075 313.64 125.135 313.22 125.135ZM320.648 125.135C320.008 125.135 319.443 124.985 318.953 124.685C318.473 124.375 318.098 123.935 317.828 123.365C317.558 122.785 317.423 122.11 317.423 121.34C317.423 120.56 317.553 119.89 317.813 119.33C318.083 118.76 318.458 118.325 318.938 118.025C319.428 117.715 319.998 117.56 320.648 117.56C321.298 117.56 321.858 117.725 322.328 118.055C322.798 118.375 323.113 118.805 323.273 119.345H323.108V115.01C323.108 114.78 323.163 114.61 323.273 114.5C323.393 114.38 323.563 114.32 323.783 114.32C324.003 114.32 324.173 114.38 324.293 114.5C324.413 114.61 324.473 114.78 324.473 115.01V124.4C324.473 124.63 324.413 124.805 324.293 124.925C324.173 125.045 324.003 125.105 323.783 125.105C323.573 125.105 323.408 125.045 323.288 124.925C323.168 124.805 323.108 124.63 323.108 124.4V123.035L323.273 123.305C323.123 123.865 322.808 124.31 322.328 124.64C321.858 124.97 321.298 125.135 320.648 125.135ZM320.963 124.055C321.403 124.055 321.783 123.95 322.103 123.74C322.433 123.53 322.683 123.225 322.853 122.825C323.033 122.425 323.123 121.93 323.123 121.34C323.123 120.46 322.928 119.79 322.538 119.33C322.148 118.87 321.623 118.64 320.963 118.64C320.533 118.64 320.153 118.745 319.823 118.955C319.503 119.155 319.253 119.455 319.073 119.855C318.893 120.255 318.803 120.75 318.803 121.34C318.803 122.22 318.998 122.895 319.388 123.365C319.788 123.825 320.313 124.055 320.963 124.055ZM327.336 125.075C327.126 125.075 326.961 125.01 326.841 124.88C326.721 124.75 326.661 124.57 326.661 124.34V118.355C326.661 118.115 326.721 117.935 326.841 117.815C326.961 117.685 327.126 117.62 327.336 117.62C327.556 117.62 327.726 117.685 327.846 117.815C327.966 117.935 328.026 118.115 328.026 118.355V124.34C328.026 124.57 327.966 124.75 327.846 124.88C327.736 125.01 327.566 125.075 327.336 125.075ZM327.336 116C327.066 116 326.851 115.93 326.691 115.79C326.541 115.64 326.466 115.445 326.466 115.205C326.466 114.945 326.541 114.75 326.691 114.62C326.851 114.48 327.066 114.41 327.336 114.41C327.626 114.41 327.841 114.48 327.981 114.62C328.131 114.75 328.206 114.945 328.206 115.205C328.206 115.445 328.131 115.64 327.981 115.79C327.841 115.93 327.626 116 327.336 116ZM332.546 125.135C332.046 125.135 331.591 125.035 331.181 124.835C330.781 124.635 330.466 124.365 330.236 124.025C330.016 123.685 329.906 123.305 329.906 122.885C329.906 122.345 330.041 121.92 330.311 121.61C330.581 121.3 331.036 121.08 331.676 120.95C332.316 120.81 333.176 120.74 334.256 120.74H334.961V121.61H334.286C333.516 121.61 332.906 121.645 332.456 121.715C332.016 121.785 331.706 121.91 331.526 122.09C331.346 122.26 331.256 122.5 331.256 122.81C331.256 123.2 331.391 123.52 331.661 123.77C331.941 124.02 332.321 124.145 332.801 124.145C333.181 124.145 333.516 124.055 333.806 123.875C334.096 123.685 334.326 123.435 334.496 123.125C334.666 122.805 334.751 122.44 334.751 122.03V120.305C334.751 119.715 334.631 119.29 334.391 119.03C334.151 118.76 333.746 118.625 333.176 118.625C332.846 118.625 332.506 118.67 332.156 118.76C331.806 118.85 331.441 118.99 331.061 119.18C330.911 119.25 330.781 119.275 330.671 119.255C330.561 119.225 330.471 119.165 330.401 119.075C330.341 118.975 330.306 118.87 330.296 118.76C330.296 118.64 330.321 118.525 330.371 118.415C330.431 118.305 330.531 118.225 330.671 118.175C331.111 117.955 331.546 117.8 331.976 117.71C332.416 117.61 332.826 117.56 333.206 117.56C333.856 117.56 334.391 117.665 334.811 117.875C335.231 118.075 335.546 118.39 335.756 118.82C335.966 119.24 336.071 119.78 336.071 120.44V124.4C336.071 124.63 336.016 124.805 335.906 124.925C335.796 125.045 335.636 125.105 335.426 125.105C335.226 125.105 335.066 125.045 334.946 124.925C334.836 124.805 334.781 124.63 334.781 124.4V123.335H334.916C334.836 123.705 334.686 124.025 334.466 124.295C334.246 124.565 333.971 124.775 333.641 124.925C333.321 125.065 332.956 125.135 332.546 125.135ZM342.835 125.105C342.625 125.105 342.46 125.045 342.34 124.925C342.22 124.805 342.16 124.63 342.16 124.4V118.28C342.16 118.05 342.22 117.88 342.34 117.77C342.46 117.65 342.625 117.59 342.835 117.59C343.045 117.59 343.205 117.65 343.315 117.77C343.435 117.88 343.495 118.05 343.495 118.28V119.555L343.33 119.285C343.52 118.735 343.825 118.31 344.245 118.01C344.675 117.71 345.185 117.56 345.775 117.56C346.395 117.56 346.895 117.71 347.275 118.01C347.655 118.3 347.91 118.745 348.04 119.345H347.83C348.01 118.795 348.33 118.36 348.79 118.04C349.26 117.72 349.805 117.56 350.425 117.56C350.975 117.56 351.425 117.67 351.775 117.89C352.135 118.1 352.405 118.42 352.585 118.85C352.765 119.27 352.855 119.81 352.855 120.47V124.4C352.855 124.63 352.795 124.805 352.675 124.925C352.555 125.045 352.39 125.105 352.18 125.105C351.96 125.105 351.79 125.045 351.67 124.925C351.55 124.805 351.49 124.63 351.49 124.4V120.53C351.49 119.89 351.38 119.42 351.16 119.12C350.94 118.82 350.57 118.67 350.05 118.67C349.48 118.67 349.025 118.87 348.685 119.27C348.355 119.66 348.19 120.2 348.19 120.89V124.4C348.19 124.63 348.13 124.805 348.01 124.925C347.9 125.045 347.735 125.105 347.515 125.105C347.295 125.105 347.125 125.045 347.005 124.925C346.885 124.805 346.825 124.63 346.825 124.4V120.53C346.825 119.89 346.715 119.42 346.495 119.12C346.275 118.82 345.905 118.67 345.385 118.67C344.815 118.67 344.36 118.87 344.02 119.27C343.69 119.66 343.525 120.2 343.525 120.89V124.4C343.525 124.87 343.295 125.105 342.835 125.105ZM357.375 125.135C356.875 125.135 356.42 125.035 356.01 124.835C355.61 124.635 355.295 124.365 355.065 124.025C354.845 123.685 354.735 123.305 354.735 122.885C354.735 122.345 354.87 121.92 355.14 121.61C355.41 121.3 355.865 121.08 356.505 120.95C357.145 120.81 358.005 120.74 359.085 120.74H359.79V121.61H359.115C358.345 121.61 357.735 121.645 357.285 121.715C356.845 121.785 356.535 121.91 356.355 122.09C356.175 122.26 356.085 122.5 356.085 122.81C356.085 123.2 356.22 123.52 356.49 123.77C356.77 124.02 357.15 124.145 357.63 124.145C358.01 124.145 358.345 124.055 358.635 123.875C358.925 123.685 359.155 123.435 359.325 123.125C359.495 122.805 359.58 122.44 359.58 122.03V120.305C359.58 119.715 359.46 119.29 359.22 119.03C358.98 118.76 358.575 118.625 358.005 118.625C357.675 118.625 357.335 118.67 356.985 118.76C356.635 118.85 356.27 118.99 355.89 119.18C355.74 119.25 355.61 119.275 355.5 119.255C355.39 119.225 355.3 119.165 355.23 119.075C355.17 118.975 355.135 118.87 355.125 118.76C355.125 118.64 355.15 118.525 355.2 118.415C355.26 118.305 355.36 118.225 355.5 118.175C355.94 117.955 356.375 117.8 356.805 117.71C357.245 117.61 357.655 117.56 358.035 117.56C358.685 117.56 359.22 117.665 359.64 117.875C360.06 118.075 360.375 118.39 360.585 118.82C360.795 119.24 360.9 119.78 360.9 120.44V124.4C360.9 124.63 360.845 124.805 360.735 124.925C360.625 125.045 360.465 125.105 360.255 125.105C360.055 125.105 359.895 125.045 359.775 124.925C359.665 124.805 359.61 124.63 359.61 124.4V123.335H359.745C359.665 123.705 359.515 124.025 359.295 124.295C359.075 124.565 358.8 124.775 358.47 124.925C358.15 125.065 357.785 125.135 357.375 125.135ZM363.723 125.105C363.513 125.105 363.348 125.045 363.228 124.925C363.108 124.805 363.048 124.63 363.048 124.4V118.28C363.048 118.05 363.108 117.88 363.228 117.77C363.348 117.65 363.513 117.59 363.723 117.59C363.933 117.59 364.093 117.65 364.203 117.77C364.323 117.88 364.383 118.05 364.383 118.28V119.51L364.218 119.285C364.428 118.715 364.768 118.285 365.238 117.995C365.718 117.705 366.263 117.56 366.873 117.56C367.463 117.56 367.948 117.665 368.328 117.875C368.708 118.085 368.993 118.405 369.183 118.835C369.373 119.265 369.468 119.81 369.468 120.47V124.4C369.468 124.63 369.408 124.805 369.288 124.925C369.178 125.045 369.013 125.105 368.793 125.105C368.573 125.105 368.403 125.045 368.283 124.925C368.163 124.805 368.103 124.63 368.103 124.4V120.545C368.103 119.895 367.978 119.42 367.728 119.12C367.478 118.82 367.078 118.67 366.528 118.67C365.888 118.67 365.373 118.87 364.983 119.27C364.603 119.66 364.413 120.19 364.413 120.86V124.4C364.413 124.87 364.183 125.105 363.723 125.105ZM373.957 125.135C373.457 125.135 373.002 125.035 372.592 124.835C372.192 124.635 371.877 124.365 371.647 124.025C371.427 123.685 371.317 123.305 371.317 122.885C371.317 122.345 371.452 121.92 371.722 121.61C371.992 121.3 372.447 121.08 373.087 120.95C373.727 120.81 374.587 120.74 375.667 120.74H376.372V121.61H375.697C374.927 121.61 374.317 121.645 373.867 121.715C373.427 121.785 373.117 121.91 372.937 122.09C372.757 122.26 372.667 122.5 372.667 122.81C372.667 123.2 372.802 123.52 373.072 123.77C373.352 124.02 373.732 124.145 374.212 124.145C374.592 124.145 374.927 124.055 375.217 123.875C375.507 123.685 375.737 123.435 375.907 123.125C376.077 122.805 376.162 122.44 376.162 122.03V120.305C376.162 119.715 376.042 119.29 375.802 119.03C375.562 118.76 375.157 118.625 374.587 118.625C374.257 118.625 373.917 118.67 373.567 118.76C373.217 118.85 372.852 118.99 372.472 119.18C372.322 119.25 372.192 119.275 372.082 119.255C371.972 119.225 371.882 119.165 371.812 119.075C371.752 118.975 371.717 118.87 371.707 118.76C371.707 118.64 371.732 118.525 371.782 118.415C371.842 118.305 371.942 118.225 372.082 118.175C372.522 117.955 372.957 117.8 373.387 117.71C373.827 117.61 374.237 117.56 374.617 117.56C375.267 117.56 375.802 117.665 376.222 117.875C376.642 118.075 376.957 118.39 377.167 118.82C377.377 119.24 377.482 119.78 377.482 120.44V124.4C377.482 124.63 377.427 124.805 377.317 124.925C377.207 125.045 377.047 125.105 376.837 125.105C376.637 125.105 376.477 125.045 376.357 124.925C376.247 124.805 376.192 124.63 376.192 124.4V123.335H376.327C376.247 123.705 376.097 124.025 375.877 124.295C375.657 124.565 375.382 124.775 375.052 124.925C374.732 125.065 374.367 125.135 373.957 125.135ZM382.915 127.835C382.375 127.835 381.85 127.775 381.34 127.655C380.84 127.535 380.385 127.35 379.975 127.1C379.845 127.02 379.755 126.925 379.705 126.815C379.665 126.715 379.655 126.61 379.675 126.5C379.705 126.39 379.755 126.29 379.825 126.2C379.905 126.12 379.995 126.065 380.095 126.035C380.205 126.015 380.315 126.04 380.425 126.11C380.865 126.36 381.285 126.53 381.685 126.62C382.085 126.71 382.465 126.755 382.825 126.755C383.535 126.755 384.065 126.57 384.415 126.2C384.775 125.84 384.955 125.31 384.955 124.61V122.99H385.09C384.95 123.55 384.635 123.995 384.145 124.325C383.665 124.655 383.105 124.82 382.465 124.82C381.805 124.82 381.23 124.67 380.74 124.37C380.25 124.06 379.87 123.635 379.6 123.095C379.33 122.545 379.195 121.91 379.195 121.19C379.195 120.64 379.27 120.145 379.42 119.705C379.58 119.255 379.8 118.875 380.08 118.565C380.37 118.245 380.715 118 381.115 117.83C381.515 117.65 381.965 117.56 382.465 117.56C383.115 117.56 383.68 117.725 384.16 118.055C384.64 118.385 384.95 118.83 385.09 119.39L384.925 119.6V118.28C384.925 118.05 384.985 117.88 385.105 117.77C385.225 117.65 385.395 117.59 385.615 117.59C385.825 117.59 385.99 117.65 386.11 117.77C386.23 117.88 386.29 118.05 386.29 118.28V124.43C386.29 125.56 386 126.41 385.42 126.98C384.85 127.55 384.015 127.835 382.915 127.835ZM382.765 123.74C383.215 123.74 383.6 123.64 383.92 123.44C384.25 123.23 384.5 122.935 384.67 122.555C384.85 122.165 384.94 121.71 384.94 121.19C384.94 120.4 384.745 119.78 384.355 119.33C383.965 118.87 383.435 118.64 382.765 118.64C382.315 118.64 381.925 118.745 381.595 118.955C381.275 119.155 381.025 119.445 380.845 119.825C380.665 120.205 380.575 120.66 380.575 121.19C380.575 121.97 380.77 122.59 381.16 123.05C381.56 123.51 382.095 123.74 382.765 123.74ZM391.853 125.135C391.063 125.135 390.383 124.985 389.813 124.685C389.253 124.375 388.818 123.94 388.508 123.38C388.198 122.81 388.043 122.14 388.043 121.37C388.043 120.61 388.193 119.945 388.493 119.375C388.803 118.805 389.223 118.36 389.753 118.04C390.293 117.72 390.908 117.56 391.598 117.56C392.088 117.56 392.528 117.645 392.918 117.815C393.318 117.975 393.658 118.21 393.938 118.52C394.218 118.83 394.428 119.21 394.568 119.66C394.718 120.1 394.793 120.6 394.793 121.16C394.793 121.32 394.743 121.445 394.643 121.535C394.553 121.615 394.418 121.655 394.238 121.655H389.108V120.785H393.893L393.638 120.995C393.638 120.475 393.558 120.035 393.398 119.675C393.248 119.305 393.023 119.025 392.723 118.835C392.433 118.645 392.068 118.55 391.628 118.55C391.148 118.55 390.738 118.665 390.398 118.895C390.058 119.115 389.798 119.43 389.618 119.84C389.438 120.24 389.348 120.705 389.348 121.235V121.325C389.348 122.225 389.563 122.905 389.993 123.365C390.423 123.825 391.043 124.055 391.853 124.055C392.173 124.055 392.498 124.015 392.828 123.935C393.168 123.855 393.493 123.71 393.803 123.5C393.953 123.41 394.088 123.37 394.208 123.38C394.338 123.38 394.443 123.42 394.523 123.5C394.603 123.57 394.653 123.66 394.673 123.77C394.693 123.87 394.678 123.98 394.628 124.1C394.578 124.22 394.483 124.325 394.343 124.415C394.013 124.645 393.618 124.825 393.158 124.955C392.708 125.075 392.273 125.135 391.853 125.135ZM397.196 125.105C396.986 125.105 396.821 125.045 396.701 124.925C396.581 124.805 396.521 124.63 396.521 124.4V118.28C396.521 118.05 396.581 117.88 396.701 117.77C396.821 117.65 396.986 117.59 397.196 117.59C397.406 117.59 397.566 117.65 397.676 117.77C397.796 117.88 397.856 118.05 397.856 118.28V119.555L397.691 119.285C397.881 118.735 398.186 118.31 398.606 118.01C399.036 117.71 399.546 117.56 400.136 117.56C400.756 117.56 401.256 117.71 401.636 118.01C402.016 118.3 402.271 118.745 402.401 119.345H402.191C402.371 118.795 402.691 118.36 403.151 118.04C403.621 117.72 404.166 117.56 404.786 117.56C405.336 117.56 405.786 117.67 406.136 117.89C406.496 118.1 406.766 118.42 406.946 118.85C407.126 119.27 407.216 119.81 407.216 120.47V124.4C407.216 124.63 407.156 124.805 407.036 124.925C406.916 125.045 406.751 125.105 406.541 125.105C406.321 125.105 406.151 125.045 406.031 124.925C405.911 124.805 405.851 124.63 405.851 124.4V120.53C405.851 119.89 405.741 119.42 405.521 119.12C405.301 118.82 404.931 118.67 404.411 118.67C403.841 118.67 403.386 118.87 403.046 119.27C402.716 119.66 402.551 120.2 402.551 120.89V124.4C402.551 124.63 402.491 124.805 402.371 124.925C402.261 125.045 402.096 125.105 401.876 125.105C401.656 125.105 401.486 125.045 401.366 124.925C401.246 124.805 401.186 124.63 401.186 124.4V120.53C401.186 119.89 401.076 119.42 400.856 119.12C400.636 118.82 400.266 118.67 399.746 118.67C399.176 118.67 398.721 118.87 398.381 119.27C398.051 119.66 397.886 120.2 397.886 120.89V124.4C397.886 124.87 397.656 125.105 397.196 125.105ZM412.785 125.135C411.995 125.135 411.315 124.985 410.745 124.685C410.185 124.375 409.75 123.94 409.44 123.38C409.13 122.81 408.975 122.14 408.975 121.37C408.975 120.61 409.125 119.945 409.425 119.375C409.735 118.805 410.155 118.36 410.685 118.04C411.225 117.72 411.84 117.56 412.53 117.56C413.02 117.56 413.46 117.645 413.85 117.815C414.25 117.975 414.59 118.21 414.87 118.52C415.15 118.83 415.36 119.21 415.5 119.66C415.65 120.1 415.725 120.6 415.725 121.16C415.725 121.32 415.675 121.445 415.575 121.535C415.485 121.615 415.35 121.655 415.17 121.655H410.04V120.785H414.825L414.57 120.995C414.57 120.475 414.49 120.035 414.33 119.675C414.18 119.305 413.955 119.025 413.655 118.835C413.365 118.645 413 118.55 412.56 118.55C412.08 118.55 411.67 118.665 411.33 118.895C410.99 119.115 410.73 119.43 410.55 119.84C410.37 120.24 410.28 120.705 410.28 121.235V121.325C410.28 122.225 410.495 122.905 410.925 123.365C411.355 123.825 411.975 124.055 412.785 124.055C413.105 124.055 413.43 124.015 413.76 123.935C414.1 123.855 414.425 123.71 414.735 123.5C414.885 123.41 415.02 123.37 415.14 123.38C415.27 123.38 415.375 123.42 415.455 123.5C415.535 123.57 415.585 123.66 415.605 123.77C415.625 123.87 415.61 123.98 415.56 124.1C415.51 124.22 415.415 124.325 415.275 124.415C414.945 124.645 414.55 124.825 414.09 124.955C413.64 125.075 413.205 125.135 412.785 125.135ZM418.098 125.105C417.888 125.105 417.723 125.045 417.603 124.925C417.483 124.805 417.423 124.63 417.423 124.4V118.28C417.423 118.05 417.483 117.88 417.603 117.77C417.723 117.65 417.888 117.59 418.098 117.59C418.308 117.59 418.468 117.65 418.578 117.77C418.698 117.88 418.758 118.05 418.758 118.28V119.51L418.593 119.285C418.803 118.715 419.143 118.285 419.613 117.995C420.093 117.705 420.638 117.56 421.248 117.56C421.838 117.56 422.323 117.665 422.703 117.875C423.083 118.085 423.368 118.405 423.558 118.835C423.748 119.265 423.843 119.81 423.843 120.47V124.4C423.843 124.63 423.783 124.805 423.663 124.925C423.553 125.045 423.388 125.105 423.168 125.105C422.948 125.105 422.778 125.045 422.658 124.925C422.538 124.805 422.478 124.63 422.478 124.4V120.545C422.478 119.895 422.353 119.42 422.103 119.12C421.853 118.82 421.453 118.67 420.903 118.67C420.263 118.67 419.748 118.87 419.358 119.27C418.978 119.66 418.788 120.19 418.788 120.86V124.4C418.788 124.87 418.558 125.105 418.098 125.105ZM429.037 125.135C428.447 125.135 427.952 125.03 427.552 124.82C427.162 124.61 426.867 124.305 426.667 123.905C426.477 123.505 426.382 123.015 426.382 122.435V118.745H425.422C425.242 118.745 425.102 118.7 425.002 118.61C424.902 118.51 424.852 118.38 424.852 118.22C424.852 118.05 424.902 117.92 425.002 117.83C425.102 117.74 425.242 117.695 425.422 117.695H426.382V116.06C426.382 115.83 426.442 115.66 426.562 115.55C426.682 115.43 426.852 115.37 427.072 115.37C427.292 115.37 427.457 115.43 427.567 115.55C427.687 115.66 427.747 115.83 427.747 116.06V117.695H429.562C429.752 117.695 429.897 117.74 429.997 117.83C430.097 117.92 430.147 118.05 430.147 118.22C430.147 118.38 430.097 118.51 429.997 118.61C429.897 118.7 429.752 118.745 429.562 118.745H427.747V122.315C427.747 122.865 427.862 123.28 428.092 123.56C428.322 123.84 428.702 123.98 429.232 123.98C429.422 123.98 429.582 123.965 429.712 123.935C429.842 123.895 429.957 123.875 430.057 123.875C430.147 123.865 430.222 123.895 430.282 123.965C430.352 124.035 430.387 124.165 430.387 124.355C430.387 124.495 430.362 124.625 430.312 124.745C430.272 124.855 430.187 124.93 430.057 124.97C429.937 125.01 429.777 125.045 429.577 125.075C429.377 125.115 429.197 125.135 429.037 125.135ZM437.814 125.135C437.364 125.135 436.909 125.085 436.449 124.985C435.999 124.875 435.574 124.69 435.174 124.43C435.064 124.36 434.984 124.275 434.934 124.175C434.894 124.065 434.879 123.96 434.889 123.86C434.909 123.75 434.954 123.655 435.024 123.575C435.094 123.495 435.179 123.45 435.279 123.44C435.389 123.42 435.504 123.445 435.624 123.515C436.014 123.735 436.389 123.89 436.749 123.98C437.119 124.07 437.484 124.115 437.844 124.115C438.394 124.115 438.809 124.015 439.089 123.815C439.369 123.615 439.509 123.35 439.509 123.02C439.509 122.74 439.414 122.525 439.224 122.375C439.044 122.215 438.759 122.095 438.369 122.015L436.974 121.73C436.354 121.59 435.884 121.36 435.564 121.04C435.254 120.71 435.099 120.29 435.099 119.78C435.099 119.33 435.219 118.94 435.459 118.61C435.709 118.27 436.054 118.01 436.494 117.83C436.934 117.65 437.439 117.56 438.009 117.56C438.449 117.56 438.864 117.62 439.254 117.74C439.654 117.85 440.014 118.02 440.334 118.25C440.454 118.32 440.529 118.41 440.559 118.52C440.599 118.62 440.604 118.725 440.574 118.835C440.554 118.935 440.509 119.02 440.439 119.09C440.369 119.16 440.279 119.205 440.169 119.225C440.059 119.235 439.939 119.205 439.809 119.135C439.519 118.935 439.219 118.795 438.909 118.715C438.609 118.625 438.309 118.58 438.009 118.58C437.469 118.58 437.059 118.685 436.779 118.895C436.509 119.105 436.374 119.38 436.374 119.72C436.374 119.98 436.454 120.195 436.614 120.365C436.784 120.535 437.049 120.66 437.409 120.74L438.804 121.025C439.454 121.165 439.944 121.39 440.274 121.7C440.604 122 440.769 122.41 440.769 122.93C440.769 123.61 440.499 124.15 439.959 124.55C439.429 124.94 438.714 125.135 437.814 125.135ZM445.65 125.135C444.93 125.135 444.305 124.98 443.775 124.67C443.245 124.36 442.835 123.92 442.545 123.35C442.255 122.78 442.11 122.11 442.11 121.34C442.11 120.76 442.19 120.24 442.35 119.78C442.52 119.31 442.76 118.91 443.07 118.58C443.38 118.25 443.75 118 444.18 117.83C444.62 117.65 445.11 117.56 445.65 117.56C446.37 117.56 446.995 117.715 447.525 118.025C448.055 118.335 448.465 118.775 448.755 119.345C449.045 119.905 449.19 120.57 449.19 121.34C449.19 121.92 449.105 122.445 448.935 122.915C448.775 123.385 448.54 123.785 448.23 124.115C447.92 124.445 447.545 124.7 447.105 124.88C446.675 125.05 446.19 125.135 445.65 125.135ZM445.65 124.055C446.09 124.055 446.47 123.95 446.79 123.74C447.12 123.53 447.37 123.225 447.54 122.825C447.72 122.425 447.81 121.93 447.81 121.34C447.81 120.46 447.615 119.79 447.225 119.33C446.835 118.87 446.31 118.64 445.65 118.64C445.22 118.64 444.84 118.745 444.51 118.955C444.19 119.155 443.94 119.455 443.76 119.855C443.58 120.255 443.49 120.75 443.49 121.34C443.49 122.22 443.685 122.895 444.075 123.365C444.475 123.825 445 124.055 445.65 124.055ZM451.976 125.105C451.756 125.105 451.586 125.045 451.466 124.925C451.346 124.805 451.286 124.63 451.286 124.4V118.745H450.386C450.206 118.745 450.066 118.7 449.966 118.61C449.866 118.51 449.816 118.38 449.816 118.22C449.816 118.05 449.866 117.92 449.966 117.83C450.066 117.74 450.206 117.695 450.386 117.695H451.661L451.286 118.055V117.5C451.286 116.53 451.521 115.795 451.991 115.295C452.471 114.785 453.171 114.49 454.091 114.41L454.556 114.38C454.706 114.36 454.826 114.385 454.916 114.455C455.006 114.515 455.066 114.595 455.096 114.695C455.126 114.795 455.126 114.9 455.096 115.01C455.076 115.11 455.031 115.2 454.961 115.28C454.891 115.36 454.801 115.405 454.691 115.415L454.361 115.43C453.761 115.48 453.326 115.66 453.056 115.97C452.786 116.27 452.651 116.72 452.651 117.32V117.92L452.456 117.695H454.181C454.371 117.695 454.516 117.74 454.616 117.83C454.716 117.92 454.766 118.05 454.766 118.22C454.766 118.38 454.716 118.51 454.616 118.61C454.516 118.7 454.371 118.745 454.181 118.745H452.651V124.4C452.651 124.87 452.426 125.105 451.976 125.105ZM458.627 125.135C458.037 125.135 457.542 125.03 457.142 124.82C456.752 124.61 456.457 124.305 456.257 123.905C456.067 123.505 455.972 123.015 455.972 122.435V118.745H455.012C454.832 118.745 454.692 118.7 454.592 118.61C454.492 118.51 454.442 118.38 454.442 118.22C454.442 118.05 454.492 117.92 454.592 117.83C454.692 117.74 454.832 117.695 455.012 117.695H455.972V116.06C455.972 115.83 456.032 115.66 456.152 115.55C456.272 115.43 456.442 115.37 456.662 115.37C456.882 115.37 457.047 115.43 457.157 115.55C457.277 115.66 457.337 115.83 457.337 116.06V117.695H459.152C459.342 117.695 459.487 117.74 459.587 117.83C459.687 117.92 459.737 118.05 459.737 118.22C459.737 118.38 459.687 118.51 459.587 118.61C459.487 118.7 459.342 118.745 459.152 118.745H457.337V122.315C457.337 122.865 457.452 123.28 457.682 123.56C457.912 123.84 458.292 123.98 458.822 123.98C459.012 123.98 459.172 123.965 459.302 123.935C459.432 123.895 459.547 123.875 459.647 123.875C459.737 123.865 459.812 123.895 459.872 123.965C459.942 124.035 459.977 124.165 459.977 124.355C459.977 124.495 459.952 124.625 459.902 124.745C459.862 124.855 459.777 124.93 459.647 124.97C459.527 125.01 459.367 125.045 459.167 125.075C458.967 125.115 458.787 125.135 458.627 125.135ZM463.67 125.105C463.48 125.105 463.315 125.06 463.175 124.97C463.035 124.87 462.925 124.71 462.845 124.49L460.61 118.535C460.54 118.345 460.52 118.18 460.55 118.04C460.58 117.9 460.65 117.79 460.76 117.71C460.87 117.63 461.015 117.59 461.195 117.59C461.365 117.59 461.5 117.63 461.6 117.71C461.7 117.79 461.785 117.935 461.855 118.145L463.895 123.905H463.535L465.635 118.115C465.705 117.935 465.795 117.805 465.905 117.725C466.025 117.635 466.17 117.59 466.34 117.59C466.52 117.59 466.67 117.635 466.79 117.725C466.91 117.805 466.995 117.935 467.045 118.115L469.115 123.905H468.77L470.84 118.115C470.91 117.915 471 117.78 471.11 117.71C471.22 117.63 471.355 117.59 471.515 117.59C471.695 117.59 471.83 117.635 471.92 117.725C472.01 117.815 472.06 117.935 472.07 118.085C472.09 118.225 472.07 118.375 472.01 118.535L469.775 124.49C469.705 124.7 469.595 124.855 469.445 124.955C469.305 125.055 469.14 125.105 468.95 125.105C468.76 125.105 468.59 125.055 468.44 124.955C468.3 124.855 468.19 124.7 468.11 124.49L465.965 118.61H466.655L464.51 124.49C464.43 124.7 464.32 124.855 464.18 124.955C464.04 125.055 463.87 125.105 463.67 125.105ZM475.91 125.135C475.41 125.135 474.955 125.035 474.545 124.835C474.145 124.635 473.83 124.365 473.6 124.025C473.38 123.685 473.27 123.305 473.27 122.885C473.27 122.345 473.405 121.92 473.675 121.61C473.945 121.3 474.4 121.08 475.04 120.95C475.68 120.81 476.54 120.74 477.62 120.74H478.325V121.61H477.65C476.88 121.61 476.27 121.645 475.82 121.715C475.38 121.785 475.07 121.91 474.89 122.09C474.71 122.26 474.62 122.5 474.62 122.81C474.62 123.2 474.755 123.52 475.025 123.77C475.305 124.02 475.685 124.145 476.165 124.145C476.545 124.145 476.88 124.055 477.17 123.875C477.46 123.685 477.69 123.435 477.86 123.125C478.03 122.805 478.115 122.44 478.115 122.03V120.305C478.115 119.715 477.995 119.29 477.755 119.03C477.515 118.76 477.11 118.625 476.54 118.625C476.21 118.625 475.87 118.67 475.52 118.76C475.17 118.85 474.805 118.99 474.425 119.18C474.275 119.25 474.145 119.275 474.035 119.255C473.925 119.225 473.835 119.165 473.765 119.075C473.705 118.975 473.67 118.87 473.66 118.76C473.66 118.64 473.685 118.525 473.735 118.415C473.795 118.305 473.895 118.225 474.035 118.175C474.475 117.955 474.91 117.8 475.34 117.71C475.78 117.61 476.19 117.56 476.57 117.56C477.22 117.56 477.755 117.665 478.175 117.875C478.595 118.075 478.91 118.39 479.12 118.82C479.33 119.24 479.435 119.78 479.435 120.44V124.4C479.435 124.63 479.38 124.805 479.27 124.925C479.16 125.045 479 125.105 478.79 125.105C478.59 125.105 478.43 125.045 478.31 124.925C478.2 124.805 478.145 124.63 478.145 124.4V123.335H478.28C478.2 123.705 478.05 124.025 477.83 124.295C477.61 124.565 477.335 124.775 477.005 124.925C476.685 125.065 476.32 125.135 475.91 125.135ZM482.288 125.105C482.058 125.105 481.883 125.045 481.763 124.925C481.643 124.805 481.583 124.63 481.583 124.4V118.28C481.583 118.05 481.643 117.88 481.763 117.77C481.883 117.65 482.048 117.59 482.258 117.59C482.468 117.59 482.628 117.65 482.738 117.77C482.858 117.88 482.918 118.05 482.918 118.28V119.435H482.768C482.928 118.835 483.228 118.38 483.668 118.07C484.108 117.76 484.663 117.585 485.333 117.545C485.493 117.535 485.623 117.575 485.723 117.665C485.823 117.745 485.878 117.885 485.888 118.085C485.898 118.275 485.853 118.43 485.753 118.55C485.653 118.66 485.498 118.725 485.288 118.745L485.018 118.76C484.358 118.83 483.848 119.045 483.488 119.405C483.138 119.765 482.963 120.26 482.963 120.89V124.4C482.963 124.63 482.903 124.805 482.783 124.925C482.673 125.045 482.508 125.105 482.288 125.105ZM490.334 125.135C489.544 125.135 488.864 124.985 488.294 124.685C487.734 124.375 487.299 123.94 486.989 123.38C486.679 122.81 486.524 122.14 486.524 121.37C486.524 120.61 486.674 119.945 486.974 119.375C487.284 118.805 487.704 118.36 488.234 118.04C488.774 117.72 489.389 117.56 490.079 117.56C490.569 117.56 491.009 117.645 491.399 117.815C491.799 117.975 492.139 118.21 492.419 118.52C492.699 118.83 492.909 119.21 493.049 119.66C493.199 120.1 493.274 120.6 493.274 121.16C493.274 121.32 493.224 121.445 493.124 121.535C493.034 121.615 492.899 121.655 492.719 121.655H487.589V120.785H492.374L492.119 120.995C492.119 120.475 492.039 120.035 491.879 119.675C491.729 119.305 491.504 119.025 491.204 118.835C490.914 118.645 490.549 118.55 490.109 118.55C489.629 118.55 489.219 118.665 488.879 118.895C488.539 119.115 488.279 119.43 488.099 119.84C487.919 120.24 487.829 120.705 487.829 121.235V121.325C487.829 122.225 488.044 122.905 488.474 123.365C488.904 123.825 489.524 124.055 490.334 124.055C490.654 124.055 490.979 124.015 491.309 123.935C491.649 123.855 491.974 123.71 492.284 123.5C492.434 123.41 492.569 123.37 492.689 123.38C492.819 123.38 492.924 123.42 493.004 123.5C493.084 123.57 493.134 123.66 493.154 123.77C493.174 123.87 493.159 123.98 493.109 124.1C493.059 124.22 492.964 124.325 492.824 124.415C492.494 124.645 492.099 124.825 491.639 124.955C491.189 125.075 490.754 125.135 490.334 125.135Z" fill="#4B5563"/>
<path d="M177.535 96.44C176.508 96.44 175.72 96.1467 175.17 95.56C174.62 94.9733 174.345 94.1667 174.345 93.14V60.085C174.345 59.0217 174.638 58.215 175.225 57.665C175.812 57.0783 176.618 56.785 177.645 56.785C178.562 56.785 179.277 56.9683 179.79 57.335C180.34 57.665 180.835 58.2517 181.275 59.095L194.86 84.23H193.1L206.685 59.095C207.125 58.2517 207.602 57.665 208.115 57.335C208.628 56.9683 209.343 56.785 210.26 56.785C211.287 56.785 212.075 57.0783 212.625 57.665C213.175 58.215 213.45 59.0217 213.45 60.085V93.14C213.45 94.1667 213.175 94.9733 212.625 95.56C212.112 96.1467 211.323 96.44 210.26 96.44C209.233 96.44 208.445 96.1467 207.895 95.56C207.345 94.9733 207.07 94.1667 207.07 93.14V67.675H208.28L196.73 88.74C196.363 89.3633 195.978 89.8217 195.575 90.115C195.172 90.4083 194.622 90.555 193.925 90.555C193.228 90.555 192.66 90.4083 192.22 90.115C191.78 89.785 191.395 89.3267 191.065 88.74L179.405 67.62H180.725V93.14C180.725 94.1667 180.45 94.9733 179.9 95.56C179.387 96.1467 178.598 96.44 177.535 96.44ZM224.734 96.385C223.634 96.385 222.791 96.055 222.204 95.395C221.617 94.735 221.324 93.8183 221.324 92.645V72.46C221.324 71.25 221.617 70.3333 222.204 69.71C222.791 69.05 223.634 68.72 224.734 68.72C225.834 68.72 226.677 69.05 227.264 69.71C227.887 70.3333 228.199 71.25 228.199 72.46V92.645C228.199 93.8183 227.906 94.735 227.319 95.395C226.732 96.055 225.871 96.385 224.734 96.385ZM224.734 63.605C223.451 63.605 222.442 63.2933 221.709 62.67C221.012 62.01 220.664 61.1117 220.664 59.975C220.664 58.8017 221.012 57.9033 221.709 57.28C222.442 56.6567 223.451 56.345 224.734 56.345C226.054 56.345 227.062 56.6567 227.759 57.28C228.456 57.9033 228.804 58.8017 228.804 59.975C228.804 61.1117 228.456 62.01 227.759 62.67C227.062 63.2933 226.054 63.605 224.734 63.605ZM237.213 96.275C236.406 96.275 235.728 96.055 235.178 95.615C234.664 95.1383 234.389 94.5333 234.353 93.8C234.353 93.0667 234.664 92.2967 235.288 91.49L244.198 80.49V83.735L235.838 73.45C235.178 72.6433 234.866 71.8733 234.903 71.14C234.939 70.4067 235.214 69.82 235.728 69.38C236.278 68.9033 236.956 68.665 237.763 68.665C238.606 68.665 239.303 68.8117 239.853 69.105C240.439 69.3983 240.971 69.8567 241.448 70.48L248.048 78.95H245.628L252.283 70.48C252.796 69.8567 253.328 69.3983 253.878 69.105C254.428 68.8117 255.106 68.665 255.913 68.665C256.756 68.665 257.434 68.9033 257.948 69.38C258.461 69.8567 258.718 70.4617 258.718 71.195C258.754 71.9283 258.443 72.6983 257.783 73.505L249.478 83.68V80.6L258.388 91.49C259.048 92.26 259.359 93.0117 259.323 93.745C259.286 94.4783 258.993 95.0833 258.443 95.56C257.929 96.0367 257.251 96.275 256.408 96.275C255.601 96.275 254.923 96.1283 254.373 95.835C253.823 95.5417 253.291 95.0833 252.778 94.46L245.628 85.44H247.938L240.843 94.46C240.366 95.0467 239.853 95.505 239.303 95.835C238.753 96.1283 238.056 96.275 237.213 96.275ZM268.777 106.34C267.677 106.34 266.834 106.047 266.247 105.46C265.66 104.873 265.367 104.012 265.367 102.875V72.13C265.367 70.9933 265.66 70.1317 266.247 69.545C266.834 68.9583 267.659 68.665 268.722 68.665C269.822 68.665 270.665 68.9583 271.252 69.545C271.839 70.1317 272.132 70.9933 272.132 72.13V76.42L271.527 74.77C272.077 72.9 273.195 71.3967 274.882 70.26C276.605 69.1233 278.604 68.555 280.877 68.555C283.224 68.555 285.277 69.1233 287.037 70.26C288.834 71.3967 290.227 73.01 291.217 75.1C292.207 77.1533 292.702 79.6283 292.702 82.525C292.702 85.385 292.207 87.8783 291.217 90.005C290.227 92.095 288.852 93.7083 287.092 94.845C285.332 95.9817 283.26 96.55 280.877 96.55C278.64 96.55 276.679 96 274.992 94.9C273.305 93.7633 272.169 92.2967 271.582 90.5H272.242V102.875C272.242 104.012 271.93 104.873 271.307 105.46C270.72 106.047 269.877 106.34 268.777 106.34ZM278.952 91.325C280.309 91.325 281.5 90.995 282.527 90.335C283.554 89.675 284.342 88.7033 284.892 87.42C285.479 86.1 285.772 84.4683 285.772 82.525C285.772 79.5917 285.149 77.41 283.902 75.98C282.655 74.5133 281.005 73.78 278.952 73.78C277.595 73.78 276.404 74.11 275.377 74.77C274.35 75.3933 273.544 76.365 272.957 77.685C272.407 78.9683 272.132 80.5817 272.132 82.525C272.132 85.4217 272.755 87.6217 274.002 89.125C275.249 90.5917 276.899 91.325 278.952 91.325ZM310.611 96.55C307.824 96.55 305.404 95.9817 303.351 94.845C301.297 93.7083 299.702 92.095 298.566 90.005C297.429 87.8783 296.861 85.385 296.861 82.525C296.861 80.3617 297.172 78.4367 297.796 76.75C298.456 75.0267 299.391 73.56 300.601 72.35C301.811 71.1033 303.259 70.1683 304.946 69.545C306.632 68.885 308.521 68.555 310.611 68.555C313.397 68.555 315.817 69.1233 317.871 70.26C319.924 71.3967 321.519 73.01 322.656 75.1C323.792 77.19 324.361 79.665 324.361 82.525C324.361 84.6883 324.031 86.6317 323.371 88.355C322.747 90.0783 321.831 91.5633 320.621 92.81C319.411 94.02 317.962 94.955 316.276 95.615C314.589 96.2383 312.701 96.55 310.611 96.55ZM310.611 91.325C311.967 91.325 313.159 90.995 314.186 90.335C315.212 89.675 316.001 88.7033 316.551 87.42C317.137 86.1 317.431 84.4683 317.431 82.525C317.431 79.5917 316.807 77.41 315.561 75.98C314.314 74.5133 312.664 73.78 310.611 73.78C309.254 73.78 308.062 74.11 307.036 74.77C306.009 75.3933 305.202 76.365 304.616 77.685C304.066 78.9683 303.791 80.5817 303.791 82.525C303.791 85.4217 304.414 87.6217 305.661 89.125C306.907 90.5917 308.557 91.325 310.611 91.325ZM339.88 96.55C338.303 96.55 336.635 96.385 334.875 96.055C333.115 95.725 331.538 95.1567 330.145 94.35C329.558 93.9833 329.137 93.5617 328.88 93.085C328.66 92.5717 328.568 92.0767 328.605 91.6C328.678 91.0867 328.862 90.6467 329.155 90.28C329.485 89.9133 329.888 89.675 330.365 89.565C330.878 89.455 331.428 89.5467 332.015 89.84C333.482 90.5367 334.857 91.0317 336.14 91.325C337.423 91.5817 338.688 91.71 339.935 91.71C341.695 91.71 342.997 91.4167 343.84 90.83C344.72 90.2067 345.16 89.4 345.16 88.41C345.16 87.5667 344.867 86.925 344.28 86.485C343.73 86.0083 342.887 85.66 341.75 85.44L336.25 84.395C333.977 83.955 332.235 83.13 331.025 81.92C329.852 80.6733 329.265 79.0783 329.265 77.135C329.265 75.375 329.742 73.8533 330.695 72.57C331.685 71.2867 333.042 70.2967 334.765 69.6C336.488 68.9033 338.468 68.555 340.705 68.555C342.318 68.555 343.822 68.7383 345.215 69.105C346.645 69.435 348.02 69.9667 349.34 70.7C349.89 70.9933 350.257 71.3783 350.44 71.855C350.66 72.3317 350.715 72.8267 350.605 73.34C350.495 73.8167 350.275 74.2567 349.945 74.66C349.615 75.0267 349.193 75.265 348.68 75.375C348.203 75.4483 347.653 75.3383 347.03 75.045C345.893 74.4583 344.793 74.0367 343.73 73.78C342.703 73.5233 341.713 73.395 340.76 73.395C338.963 73.395 337.625 73.7067 336.745 74.33C335.902 74.9533 335.48 75.7783 335.48 76.805C335.48 77.575 335.737 78.2167 336.25 78.73C336.763 79.2433 337.552 79.5917 338.615 79.775L344.115 80.82C346.498 81.26 348.295 82.0667 349.505 83.24C350.752 84.4133 351.375 85.99 351.375 87.97C351.375 90.6467 350.33 92.755 348.24 94.295C346.15 95.7983 343.363 96.55 339.88 96.55ZM368.942 96.55C366.559 96.55 364.56 96.1467 362.947 95.34C361.37 94.5333 360.197 93.36 359.427 91.82C358.657 90.2433 358.272 88.3 358.272 85.99V74.275H355.412C354.532 74.275 353.854 74.055 353.377 73.615C352.9 73.1383 352.662 72.4967 352.662 71.69C352.662 70.8467 352.9 70.205 353.377 69.765C353.854 69.325 354.532 69.105 355.412 69.105H358.272V64.1C358.272 62.9633 358.565 62.1017 359.152 61.515C359.775 60.9283 360.637 60.635 361.737 60.635C362.837 60.635 363.68 60.9283 364.267 61.515C364.854 62.1017 365.147 62.9633 365.147 64.1V69.105H370.977C371.857 69.105 372.535 69.325 373.012 69.765C373.489 70.205 373.727 70.8467 373.727 71.69C373.727 72.4967 373.489 73.1383 373.012 73.615C372.535 74.055 371.857 74.275 370.977 74.275H365.147V85.605C365.147 87.365 365.532 88.685 366.302 89.565C367.072 90.445 368.319 90.885 370.042 90.885C370.665 90.885 371.215 90.83 371.692 90.72C372.169 90.61 372.59 90.5367 372.957 90.5C373.397 90.4633 373.764 90.61 374.057 90.94C374.35 91.2333 374.497 91.8567 374.497 92.81C374.497 93.5433 374.369 94.2033 374.112 94.79C373.892 95.34 373.47 95.725 372.847 95.945C372.37 96.0917 371.747 96.22 370.977 96.33C370.207 96.4767 369.529 96.55 368.942 96.55Z" fill="#4B5563"/>
<rect x="27" y="25" width="100" height="100" rx="20" fill="#84E9F5"/>
<rect x="45" y="44" width="100" height="100" rx="20" fill="#FFAB4C"/>
<rect x="36" y="36" width="100" height="100" rx="20" fill="#4F46BB"/>
</svg>
